#N canvas 1497 250 602 623 12;
#X obj 144 159 comport;
#X msg 138 65 devices;
#X obj 138 275 pdchoco/slip_parse;
#X obj 140 533 netsend -u -b;
#X msg 266 496 disconnect;
#X msg 216 68 close;
#X text 145 40 RECEVOIR LES DONNEES DU MICROCONTRÔLEUR;
#X text 158 428 ENVOYER LES DONNEES VERS LE LOGICIEL;
#X obj 331 344 oscparse;
#X obj 395 289 tgl 19 0 empty empty empty 0 -10 0 12 #fcfcfc #000000 #000000 0 1;
#X obj 331 317 spigot;
#X text 329 288 DEBOGAGE;
#X obj 329 372 print OSC;
#X obj 394 152 tgl 19 0 empty empty empty 0 -10 0 12 #fcfcfc #000000 #000000 0 1;
#X obj 330 180 spigot;
#X text 328 151 DEBOGAGE;
#X obj 330 217 print COM;
#X msg 235 465 connect 127.0.0.1 8001;
#X msg 226 99 baud 115200 \, open 4;
#X connect 0 0 2 0;
#X connect 0 0 14 0;
#X connect 1 0 0 0;
#X connect 2 0 3 0;
#X connect 2 0 10 0;
#X connect 4 0 3 0;
#X connect 5 0 0 0;
#X connect 8 0 12 0;
#X connect 9 0 10 1;
#X connect 10 0 8 0;
#X connect 13 0 14 1;
#X connect 14 0 16 0;
#X connect 17 0 3 0;
#X connect 18 0 0 0;
